<svg width="404" height="49" viewBox="0 0 404 49" fill="none" xmlns="http://www.w3.org/2000/svg">
<g filter="url(#filter0_d_1_75446)">
<rect x="2" y="1.5" width="400" height="44" rx="8" fill="white"/>
<rect x="2.5" y="2" width="399" height="43" rx="7.5" stroke="#D0D5DD"/>
<g clip-path="url(#clip0_1_75446)">
<path d="M130.266 23.7763C130.266 22.9605 130.2 22.1404 130.059 21.3379H118.74V25.9589H125.222C124.953 27.4492 124.089 28.7676 122.823 29.6054V32.6037H126.69C128.961 30.5137 130.266 27.4272 130.266 23.7763Z" fill="#4285F4"/>
<path d="M118.74 35.5013C121.977 35.5013 124.706 34.4387 126.695 32.6044L122.828 29.606C121.752 30.338 120.363 30.7525 118.745 30.7525C115.614 30.7525 112.959 28.6404 112.007 25.8008H108.017V28.8917C110.054 32.9439 114.203 35.5013 118.74 35.5013Z" fill="#34A853"/>
<path d="M112.003 25.8007C111.5 24.3103 111.5 22.6965 112.003 21.2062V18.1152H108.017C106.315 21.506 106.315 25.5009 108.017 28.8916L112.003 25.8007Z" fill="#FBBC04"/>
<path d="M118.74 16.2497C120.451 16.2232 122.104 16.867 123.343 18.0487L126.769 14.6226C124.6 12.5855 121.721 11.4655 118.74 11.5008C114.203 11.5008 110.054 14.0582 108.017 18.1148L112.003 21.2058C112.951 18.3617 115.609 16.2497 118.74 16.2497Z" fill="#EA4335"/>
</g>
<path d="M149.972 21.0625C149.919 20.5663 149.695 20.1799 149.301 19.9034C148.911 19.6269 148.403 19.4886 147.778 19.4886C147.339 19.4886 146.962 19.5549 146.648 19.6875C146.333 19.8201 146.093 20 145.926 20.2273C145.759 20.4545 145.674 20.714 145.67 21.0057C145.67 21.2481 145.725 21.4583 145.835 21.6364C145.949 21.8144 146.102 21.9659 146.295 22.0909C146.489 22.2121 146.703 22.3144 146.938 22.3977C147.172 22.4811 147.409 22.5511 147.648 22.608L148.739 22.8807C149.178 22.983 149.6 23.1212 150.006 23.2955C150.415 23.4697 150.78 23.6894 151.102 23.9545C151.428 24.2197 151.686 24.5398 151.875 24.9148C152.064 25.2898 152.159 25.7292 152.159 26.233C152.159 26.9148 151.985 27.5152 151.636 28.0341C151.288 28.5492 150.784 28.9527 150.125 29.2443C149.47 29.5322 148.676 29.6761 147.744 29.6761C146.839 29.6761 146.053 29.536 145.386 29.2557C144.723 28.9754 144.205 28.5663 143.83 28.0284C143.458 27.4905 143.258 26.8352 143.227 26.0625H145.301C145.331 26.4678 145.456 26.8049 145.676 27.0739C145.896 27.3428 146.182 27.5436 146.534 27.6761C146.89 27.8087 147.288 27.875 147.727 27.875C148.186 27.875 148.587 27.8068 148.932 27.6705C149.28 27.5303 149.553 27.3371 149.75 27.0909C149.947 26.8409 150.047 26.5492 150.051 26.2159C150.047 25.9129 149.958 25.6629 149.784 25.4659C149.61 25.2652 149.366 25.0985 149.051 24.9659C148.741 24.8295 148.377 24.7083 147.96 24.6023L146.636 24.2614C145.678 24.0152 144.92 23.642 144.364 23.142C143.811 22.6383 143.534 21.9697 143.534 21.1364C143.534 20.4508 143.72 19.8504 144.091 19.3352C144.466 18.8201 144.975 18.4205 145.619 18.1364C146.263 17.8485 146.992 17.7045 147.807 17.7045C148.633 17.7045 149.356 17.8485 149.977 18.1364C150.602 18.4205 151.093 18.8163 151.449 19.3239C151.805 19.8277 151.989 20.4072 152 21.0625H149.972ZM153.947 29.5V20.7727H156.004V29.5H153.947ZM154.982 19.5341C154.656 19.5341 154.375 19.4261 154.141 19.2102C153.906 18.9905 153.788 18.7273 153.788 18.4205C153.788 18.1098 153.906 17.8466 154.141 17.6307C154.375 17.411 154.656 17.3011 154.982 17.3011C155.311 17.3011 155.591 17.411 155.822 17.6307C156.057 17.8466 156.175 18.1098 156.175 18.4205C156.175 18.7273 156.057 18.9905 155.822 19.2102C155.591 19.4261 155.311 19.5341 154.982 19.5341ZM161.915 32.9545C161.176 32.9545 160.542 32.8542 160.011 32.6534C159.481 32.4564 159.055 32.1913 158.733 31.858C158.411 31.5246 158.188 31.1553 158.062 30.75L159.915 30.3011C159.998 30.4716 160.119 30.6402 160.278 30.8068C160.438 30.9773 160.652 31.1174 160.92 31.2273C161.193 31.3409 161.536 31.3977 161.949 31.3977C162.532 31.3977 163.015 31.2557 163.398 30.9716C163.78 30.6913 163.972 30.2292 163.972 29.5852V27.9318H163.869C163.763 28.1439 163.608 28.3617 163.403 28.5852C163.203 28.8087 162.936 28.9962 162.602 29.1477C162.273 29.2992 161.858 29.375 161.358 29.375C160.688 29.375 160.08 29.2178 159.534 28.9034C158.992 28.5852 158.561 28.1117 158.239 27.483C157.92 26.8504 157.761 26.0587 157.761 25.108C157.761 24.1496 157.92 23.3409 158.239 22.6818C158.561 22.0189 158.994 21.517 159.54 21.1761C160.085 20.8314 160.693 20.6591 161.364 20.6591C161.875 20.6591 162.295 20.7462 162.625 20.9205C162.958 21.0909 163.223 21.2973 163.42 21.5398C163.617 21.7784 163.767 22.0038 163.869 22.2159H163.983V20.7727H166.011V29.642C166.011 30.3883 165.833 31.0057 165.477 31.4943C165.121 31.983 164.634 32.3485 164.017 32.5909C163.4 32.8333 162.699 32.9545 161.915 32.9545ZM161.932 27.7614C162.367 27.7614 162.739 27.6553 163.045 27.4432C163.352 27.2311 163.585 26.9261 163.744 26.5284C163.903 26.1307 163.983 25.6534 163.983 25.0966C163.983 24.5473 163.903 24.0663 163.744 23.6534C163.589 23.2405 163.358 22.9205 163.051 22.6932C162.748 22.4621 162.375 22.3466 161.932 22.3466C161.473 22.3466 161.091 22.4659 160.784 22.7045C160.477 22.9432 160.246 23.2708 160.091 23.6875C159.936 24.1004 159.858 24.5701 159.858 25.0966C159.858 25.6307 159.936 26.0985 160.091 26.5C160.25 26.8977 160.483 27.2083 160.79 27.4318C161.1 27.6515 161.481 27.7614 161.932 27.7614ZM170.176 24.3864V29.5H168.119V20.7727H170.085V22.2557H170.188C170.388 21.767 170.708 21.3788 171.148 21.0909C171.591 20.803 172.138 20.6591 172.79 20.6591C173.392 20.6591 173.917 20.7879 174.364 21.0455C174.814 21.303 175.163 21.6761 175.409 22.1648C175.659 22.6534 175.782 23.2462 175.778 23.9432V29.5H173.722V24.2614C173.722 23.678 173.57 23.2216 173.267 22.892C172.968 22.5625 172.553 22.3977 172.023 22.3977C171.663 22.3977 171.343 22.4773 171.062 22.6364C170.786 22.7917 170.568 23.017 170.409 23.3125C170.254 23.608 170.176 23.9659 170.176 24.3864ZM187.401 25.8295V20.7727H189.457V29.5H187.463V27.9489H187.372C187.175 28.4375 186.851 28.8371 186.401 29.1477C185.954 29.4583 185.402 29.6136 184.747 29.6136C184.175 29.6136 183.67 29.4867 183.23 29.233C182.795 28.9754 182.454 28.6023 182.207 28.1136C181.961 27.6212 181.838 27.0265 181.838 26.3295V20.7727H183.895V26.0114C183.895 26.5644 184.046 27.0038 184.349 27.3295C184.652 27.6553 185.05 27.8182 185.543 27.8182C185.846 27.8182 186.139 27.7443 186.423 27.5966C186.707 27.4489 186.94 27.2292 187.122 26.9375C187.308 26.642 187.401 26.2727 187.401 25.8295ZM191.572 32.7727V20.7727H193.595V22.2159H193.714C193.821 22.0038 193.97 21.7784 194.163 21.5398C194.357 21.2973 194.618 21.0909 194.947 20.9205C195.277 20.7462 195.697 20.6591 196.209 20.6591C196.883 20.6591 197.491 20.8314 198.033 21.1761C198.578 21.517 199.01 22.0227 199.328 22.6932C199.65 23.3598 199.811 24.178 199.811 25.1477C199.811 26.1061 199.654 26.9205 199.339 27.5909C199.025 28.2614 198.597 28.7727 198.055 29.125C197.514 29.4773 196.9 29.6534 196.214 29.6534C195.714 29.6534 195.3 29.5701 194.97 29.4034C194.641 29.2367 194.375 29.036 194.175 28.8011C193.978 28.5625 193.824 28.3371 193.714 28.125H193.629V32.7727H191.572ZM193.589 25.1364C193.589 25.7008 193.669 26.1951 193.828 26.6193C193.991 27.0436 194.224 27.375 194.527 27.6136C194.834 27.8485 195.205 27.9659 195.641 27.9659C196.095 27.9659 196.476 27.8447 196.783 27.6023C197.089 27.3561 197.321 27.0208 197.476 26.5966C197.635 26.1686 197.714 25.6818 197.714 25.1364C197.714 24.5947 197.637 24.1136 197.482 23.6932C197.326 23.2727 197.095 22.9432 196.788 22.7045C196.482 22.4659 196.099 22.3466 195.641 22.3466C195.201 22.3466 194.828 22.4621 194.521 22.6932C194.214 22.9242 193.982 23.2481 193.822 23.6648C193.667 24.0814 193.589 24.572 193.589 25.1364ZM207.342 29.5L204.876 20.7727H206.973L208.507 26.9091H208.587L210.155 20.7727H212.229L213.797 26.875H213.882L215.393 20.7727H217.496L215.024 29.5H212.882L211.246 23.6023H211.126L209.49 29.5H207.342ZM218.932 29.5V20.7727H220.989V29.5H218.932ZM219.966 19.5341C219.64 19.5341 219.36 19.4261 219.125 19.2102C218.89 18.9905 218.773 18.7273 218.773 18.4205C218.773 18.1098 218.89 17.8466 219.125 17.6307C219.36 17.411 219.64 17.3011 219.966 17.3011C220.295 17.3011 220.576 17.411 220.807 17.6307C221.042 17.8466 221.159 18.1098 221.159 18.4205C221.159 18.7273 221.042 18.9905 220.807 19.2102C220.576 19.4261 220.295 19.5341 219.966 19.5341ZM227.462 20.7727V22.3636H222.445V20.7727H227.462ZM223.683 18.6818H225.74V26.875C225.74 27.1515 225.782 27.3636 225.865 27.5114C225.952 27.6553 226.066 27.7538 226.206 27.8068C226.346 27.8598 226.501 27.8864 226.672 27.8864C226.801 27.8864 226.918 27.8769 227.024 27.858C227.134 27.839 227.217 27.822 227.274 27.8068L227.621 29.4148C227.511 29.4527 227.354 29.4943 227.149 29.5398C226.948 29.5852 226.702 29.6117 226.411 29.6193C225.895 29.6345 225.431 29.5568 225.018 29.3864C224.606 29.2121 224.278 28.9432 224.036 28.5795C223.797 28.2159 223.679 27.7614 223.683 27.2159V18.6818ZM231.426 24.3864V29.5H229.369V17.8636H231.381V22.2557H231.483C231.688 21.7633 232.004 21.375 232.432 21.0909C232.864 20.803 233.413 20.6591 234.08 20.6591C234.686 20.6591 235.214 20.786 235.665 21.0398C236.116 21.2936 236.464 21.6648 236.71 22.1534C236.96 22.642 237.085 23.2386 237.085 23.9432V29.5H235.028V24.2614C235.028 23.6742 234.877 23.2178 234.574 22.892C234.275 22.5625 233.854 22.3977 233.312 22.3977C232.949 22.3977 232.623 22.4773 232.335 22.6364C232.051 22.7917 231.828 23.017 231.665 23.3125C231.506 23.608 231.426 23.9659 231.426 24.3864ZM251.037 21.5795C250.942 21.2727 250.812 20.9981 250.645 20.7557C250.482 20.5095 250.285 20.2992 250.054 20.125C249.827 19.9508 249.565 19.8201 249.27 19.733C248.974 19.642 248.652 19.5966 248.304 19.5966C247.679 19.5966 247.122 19.7538 246.634 20.0682C246.145 20.3826 245.76 20.8447 245.48 21.4545C245.204 22.0606 245.065 22.7992 245.065 23.6705C245.065 24.5492 245.204 25.2936 245.48 25.9034C245.757 26.5133 246.141 26.9773 246.634 27.2955C247.126 27.6098 247.698 27.767 248.349 27.767C248.94 27.767 249.452 27.6534 249.884 27.4261C250.319 27.1989 250.654 26.8769 250.889 26.4602C251.124 26.0398 251.241 25.5473 251.241 24.983L251.719 25.0568H248.56V23.4091H253.281V24.8068C253.281 25.803 253.069 26.6648 252.645 27.392C252.221 28.1193 251.637 28.6799 250.895 29.0739C250.152 29.464 249.3 29.6591 248.338 29.6591C247.266 29.6591 246.325 29.4186 245.514 28.9375C244.707 28.4527 244.077 27.7652 243.622 26.875C243.171 25.9811 242.946 24.9205 242.946 23.6932C242.946 22.7538 243.079 21.9148 243.344 21.1761C243.613 20.4375 243.988 19.8106 244.469 19.2955C244.95 18.7765 245.514 18.3826 246.162 18.1136C246.81 17.8409 247.514 17.7045 248.276 17.7045C248.92 17.7045 249.52 17.7992 250.077 17.9886C250.634 18.1742 251.128 18.4394 251.56 18.7841C251.995 19.1288 252.353 19.5379 252.634 20.0114C252.914 20.4848 253.098 21.0076 253.185 21.5795H251.037ZM259.036 29.6705C258.183 29.6705 257.445 29.483 256.82 29.108C256.195 28.733 255.71 28.2083 255.365 27.5341C255.024 26.8598 254.854 26.072 254.854 25.1705C254.854 24.2689 255.024 23.4792 255.365 22.8011C255.71 22.1231 256.195 21.5966 256.82 21.2216C257.445 20.8466 258.183 20.6591 259.036 20.6591C259.888 20.6591 260.626 20.8466 261.251 21.2216C261.876 21.5966 262.359 22.1231 262.7 22.8011C263.045 23.4792 263.217 24.2689 263.217 25.1705C263.217 26.072 263.045 26.8598 262.7 27.5341C262.359 28.2083 261.876 28.733 261.251 29.108C260.626 29.483 259.888 29.6705 259.036 29.6705ZM259.047 28.0227C259.509 28.0227 259.895 27.8958 260.206 27.642C260.517 27.3845 260.748 27.0398 260.899 26.608C261.054 26.1761 261.132 25.6951 261.132 25.1648C261.132 24.6307 261.054 24.1477 260.899 23.7159C260.748 23.2803 260.517 22.9337 260.206 22.6761C259.895 22.4186 259.509 22.2898 259.047 22.2898C258.573 22.2898 258.179 22.4186 257.865 22.6761C257.554 22.9337 257.321 23.2803 257.166 23.7159C257.015 24.1477 256.939 24.6307 256.939 25.1648C256.939 25.6951 257.015 26.1761 257.166 26.608C257.321 27.0398 257.554 27.3845 257.865 27.642C258.179 27.8958 258.573 28.0227 259.047 28.0227ZM268.77 29.6705C267.918 29.6705 267.179 29.483 266.554 29.108C265.929 28.733 265.444 28.2083 265.099 27.5341C264.759 26.8598 264.588 26.072 264.588 25.1705C264.588 24.2689 264.759 23.4792 265.099 22.8011C265.444 22.1231 265.929 21.5966 266.554 21.2216C267.179 20.8466 267.918 20.6591 268.77 20.6591C269.622 20.6591 270.361 20.8466 270.986 21.2216C271.611 21.5966 272.094 22.1231 272.435 22.8011C272.779 23.4792 272.952 24.2689 272.952 25.1705C272.952 26.072 272.779 26.8598 272.435 27.5341C272.094 28.2083 271.611 28.733 270.986 29.108C270.361 29.483 269.622 29.6705 268.77 29.6705ZM268.781 28.0227C269.243 28.0227 269.63 27.8958 269.94 27.642C270.251 27.3845 270.482 27.0398 270.634 26.608C270.789 26.1761 270.866 25.6951 270.866 25.1648C270.866 24.6307 270.789 24.1477 270.634 23.7159C270.482 23.2803 270.251 22.9337 269.94 22.6761C269.63 22.4186 269.243 22.2898 268.781 22.2898C268.308 22.2898 267.914 22.4186 267.599 22.6761C267.289 22.9337 267.056 23.2803 266.901 23.7159C266.749 24.1477 266.673 24.6307 266.673 25.1648C266.673 25.6951 266.749 26.1761 266.901 26.608C267.056 27.0398 267.289 27.3845 267.599 27.642C267.914 27.8958 268.308 28.0227 268.781 28.0227ZM278.493 32.9545C277.754 32.9545 277.12 32.8542 276.589 32.6534C276.059 32.4564 275.633 32.1913 275.311 31.858C274.989 31.5246 274.766 31.1553 274.641 30.75L276.493 30.3011C276.576 30.4716 276.697 30.6402 276.857 30.8068C277.016 30.9773 277.23 31.1174 277.499 31.2273C277.771 31.3409 278.114 31.3977 278.527 31.3977C279.11 31.3977 279.593 31.2557 279.976 30.9716C280.358 30.6913 280.55 30.2292 280.55 29.5852V27.9318H280.447C280.341 28.1439 280.186 28.3617 279.982 28.5852C279.781 28.8087 279.514 28.9962 279.18 29.1477C278.851 29.2992 278.436 29.375 277.936 29.375C277.266 29.375 276.658 29.2178 276.112 28.9034C275.571 28.5852 275.139 28.1117 274.817 27.483C274.499 26.8504 274.339 26.0587 274.339 25.108C274.339 24.1496 274.499 23.3409 274.817 22.6818C275.139 22.0189 275.572 21.517 276.118 21.1761C276.663 20.8314 277.271 20.6591 277.942 20.6591C278.453 20.6591 278.874 20.7462 279.203 20.9205C279.536 21.0909 279.802 21.2973 279.999 21.5398C280.196 21.7784 280.345 22.0038 280.447 22.2159H280.561V20.7727H282.589V29.642C282.589 30.3883 282.411 31.0057 282.055 31.4943C281.699 31.983 281.213 32.3485 280.595 32.5909C279.978 32.8333 279.277 32.9545 278.493 32.9545ZM278.51 27.7614C278.946 27.7614 279.317 27.6553 279.624 27.4432C279.93 27.2311 280.163 26.9261 280.322 26.5284C280.482 26.1307 280.561 25.6534 280.561 25.0966C280.561 24.5473 280.482 24.0663 280.322 23.6534C280.167 23.2405 279.936 22.9205 279.629 22.6932C279.326 22.4621 278.953 22.3466 278.51 22.3466C278.052 22.3466 277.669 22.4659 277.362 22.7045C277.055 22.9432 276.824 23.2708 276.669 23.6875C276.514 24.1004 276.436 24.5701 276.436 25.0966C276.436 25.6307 276.514 26.0985 276.669 26.5C276.828 26.8977 277.061 27.2083 277.368 27.4318C277.679 27.6515 278.059 27.7614 278.51 27.7614ZM286.754 17.8636V29.5H284.697V17.8636H286.754ZM292.733 29.6705C291.858 29.6705 291.102 29.4886 290.466 29.125C289.833 28.7576 289.347 28.2386 289.006 27.5682C288.665 26.8939 288.494 26.1004 288.494 25.1875C288.494 24.2898 288.665 23.5019 289.006 22.8239C289.35 22.142 289.831 21.6117 290.449 21.233C291.066 20.8504 291.792 20.6591 292.625 20.6591C293.163 20.6591 293.67 20.7462 294.148 20.9205C294.629 21.0909 295.053 21.3561 295.42 21.7159C295.792 22.0758 296.083 22.5341 296.295 23.0909C296.508 23.6439 296.614 24.303 296.614 25.0682V25.6989H289.46V24.3125H294.642C294.638 23.9186 294.553 23.5682 294.386 23.2614C294.22 22.9508 293.987 22.7064 293.688 22.5284C293.392 22.3504 293.047 22.2614 292.653 22.2614C292.233 22.2614 291.864 22.3636 291.545 22.5682C291.227 22.7689 290.979 23.0341 290.801 23.3636C290.627 23.6894 290.538 24.0473 290.534 24.4375V25.6477C290.534 26.1553 290.627 26.5909 290.812 26.9545C290.998 27.3144 291.258 27.5909 291.591 27.7841C291.924 27.9735 292.314 28.0682 292.761 28.0682C293.061 28.0682 293.331 28.0265 293.574 27.9432C293.816 27.8561 294.027 27.7292 294.205 27.5625C294.383 27.3958 294.517 27.1894 294.608 26.9432L296.528 27.1591C296.407 27.6667 296.176 28.1098 295.835 28.4886C295.498 28.8636 295.066 29.1553 294.54 29.3636C294.013 29.5682 293.411 29.6705 292.733 29.6705Z" fill="#344054"/>
</g>
<defs>
<filter id="filter0_d_1_75446" x="0" y="0.5" width="404" height="48" filterUnits="userSpaceOnUse" color-interpolation-filters="sRGB">
<feFlood flood-opacity="0" result="BackgroundImageFix"/>
<feColorMatrix in="SourceAlpha" type="matrix" values="0 0 0 0 0 0 0 0 0 0 0 0 0 0 0 0 0 0 127 0" result="hardAlpha"/>
<feOffset dy="1"/>
<feGaussianBlur stdDeviation="1"/>
<feColorMatrix type="matrix" values="0 0 0 0 0.0627451 0 0 0 0 0.0941176 0 0 0 0 0.156863 0 0 0 0.05 0"/>
<feBlend mode="normal" in2="BackgroundImageFix" result="effect1_dropShadow_1_75446"/>
<feBlend mode="normal" in="SourceGraphic" in2="effect1_dropShadow_1_75446" result="shape"/>
</filter>
<clipPath id="clip0_1_75446">
<rect width="24" height="24" fill="white" transform="translate(106.5 11.5)"/>
</clipPath>
</defs>
</svg>
