<svg width="364" height="49" viewBox="0 0 364 49" fill="none" xmlns="http://www.w3.org/2000/svg">
<g filter="url(#filter0_d_1_75497)">
<rect x="2" y="1.5" width="360" height="44" rx="8" fill="white"/>
<rect x="2.5" y="2" width="359" height="43" rx="7.5" stroke="#D0D5DD"/>
<g clip-path="url(#clip0_1_75497)">
<path d="M113.266 23.7763C113.266 22.9605 113.2 22.1404 113.059 21.3379H101.74V25.9589H108.222C107.953 27.4492 107.089 28.7676 105.823 29.6054V32.6037H109.69C111.961 30.5137 113.266 27.4272 113.266 23.7763Z" fill="#4285F4"/>
<path d="M101.74 35.5013C104.977 35.5013 107.706 34.4387 109.695 32.6044L105.828 29.606C104.752 30.338 103.363 30.7525 101.745 30.7525C98.6139 30.7525 95.9595 28.6404 95.007 25.8008H91.0166V28.8917C93.0537 32.9439 97.2029 35.5013 101.74 35.5013Z" fill="#34A853"/>
<path d="M95.0028 25.8007C94.5001 24.3103 94.5001 22.6965 95.0028 21.2062V18.1152H91.0167C89.3147 21.506 89.3147 25.5009 91.0167 28.8916L95.0028 25.8007Z" fill="#FBBC04"/>
<path d="M101.74 16.2497C103.451 16.2232 105.104 16.867 106.343 18.0487L109.769 14.6226C107.6 12.5855 104.721 11.4655 101.74 11.5008C97.2029 11.5008 93.0537 14.0582 91.0166 18.1148L95.0026 21.2058C95.9506 18.3617 98.6095 16.2497 101.74 16.2497Z" fill="#EA4335"/>
</g>
<path d="M132.972 21.0625C132.919 20.5663 132.695 20.1799 132.301 19.9034C131.911 19.6269 131.403 19.4886 130.778 19.4886C130.339 19.4886 129.962 19.5549 129.648 19.6875C129.333 19.8201 129.093 20 128.926 20.2273C128.759 20.4545 128.674 20.714 128.67 21.0057C128.67 21.2481 128.725 21.4583 128.835 21.6364C128.949 21.8144 129.102 21.9659 129.295 22.0909C129.489 22.2121 129.703 22.3144 129.938 22.3977C130.172 22.4811 130.409 22.5511 130.648 22.608L131.739 22.8807C132.178 22.983 132.6 23.1212 133.006 23.2955C133.415 23.4697 133.78 23.6894 134.102 23.9545C134.428 24.2197 134.686 24.5398 134.875 24.9148C135.064 25.2898 135.159 25.7292 135.159 26.233C135.159 26.9148 134.985 27.5152 134.636 28.0341C134.288 28.5492 133.784 28.9527 133.125 29.2443C132.47 29.5322 131.676 29.6761 130.744 29.6761C129.839 29.6761 129.053 29.536 128.386 29.2557C127.723 28.9754 127.205 28.5663 126.83 28.0284C126.458 27.4905 126.258 26.8352 126.227 26.0625H128.301C128.331 26.4678 128.456 26.8049 128.676 27.0739C128.896 27.3428 129.182 27.5436 129.534 27.6761C129.89 27.8087 130.288 27.875 130.727 27.875C131.186 27.875 131.587 27.8068 131.932 27.6705C132.28 27.5303 132.553 27.3371 132.75 27.0909C132.947 26.8409 133.047 26.5492 133.051 26.2159C133.047 25.9129 132.958 25.6629 132.784 25.4659C132.61 25.2652 132.366 25.0985 132.051 24.9659C131.741 24.8295 131.377 24.7083 130.96 24.6023L129.636 24.2614C128.678 24.0152 127.92 23.642 127.364 23.142C126.811 22.6383 126.534 21.9697 126.534 21.1364C126.534 20.4508 126.72 19.8504 127.091 19.3352C127.466 18.8201 127.975 18.4205 128.619 18.1364C129.263 17.8485 129.992 17.7045 130.807 17.7045C131.633 17.7045 132.356 17.8485 132.977 18.1364C133.602 18.4205 134.093 18.8163 134.449 19.3239C134.805 19.8277 134.989 20.4072 135 21.0625H132.972ZM136.947 29.5V20.7727H139.004V29.5H136.947ZM137.982 19.5341C137.656 19.5341 137.375 19.4261 137.141 19.2102C136.906 18.9905 136.788 18.7273 136.788 18.4205C136.788 18.1098 136.906 17.8466 137.141 17.6307C137.375 17.411 137.656 17.3011 137.982 17.3011C138.311 17.3011 138.591 17.411 138.822 17.6307C139.057 17.8466 139.175 18.1098 139.175 18.4205C139.175 18.7273 139.057 18.9905 138.822 19.2102C138.591 19.4261 138.311 19.5341 137.982 19.5341ZM144.915 32.9545C144.176 32.9545 143.542 32.8542 143.011 32.6534C142.481 32.4564 142.055 32.1913 141.733 31.858C141.411 31.5246 141.188 31.1553 141.062 30.75L142.915 30.3011C142.998 30.4716 143.119 30.6402 143.278 30.8068C143.438 30.9773 143.652 31.1174 143.92 31.2273C144.193 31.3409 144.536 31.3977 144.949 31.3977C145.532 31.3977 146.015 31.2557 146.398 30.9716C146.78 30.6913 146.972 30.2292 146.972 29.5852V27.9318H146.869C146.763 28.1439 146.608 28.3617 146.403 28.5852C146.203 28.8087 145.936 28.9962 145.602 29.1477C145.273 29.2992 144.858 29.375 144.358 29.375C143.688 29.375 143.08 29.2178 142.534 28.9034C141.992 28.5852 141.561 28.1117 141.239 27.483C140.92 26.8504 140.761 26.0587 140.761 25.108C140.761 24.1496 140.92 23.3409 141.239 22.6818C141.561 22.0189 141.994 21.517 142.54 21.1761C143.085 20.8314 143.693 20.6591 144.364 20.6591C144.875 20.6591 145.295 20.7462 145.625 20.9205C145.958 21.0909 146.223 21.2973 146.42 21.5398C146.617 21.7784 146.767 22.0038 146.869 22.2159H146.983V20.7727H149.011V29.642C149.011 30.3883 148.833 31.0057 148.477 31.4943C148.121 31.983 147.634 32.3485 147.017 32.5909C146.4 32.8333 145.699 32.9545 144.915 32.9545ZM144.932 27.7614C145.367 27.7614 145.739 27.6553 146.045 27.4432C146.352 27.2311 146.585 26.9261 146.744 26.5284C146.903 26.1307 146.983 25.6534 146.983 25.0966C146.983 24.5473 146.903 24.0663 146.744 23.6534C146.589 23.2405 146.358 22.9205 146.051 22.6932C145.748 22.4621 145.375 22.3466 144.932 22.3466C144.473 22.3466 144.091 22.4659 143.784 22.7045C143.477 22.9432 143.246 23.2708 143.091 23.6875C142.936 24.1004 142.858 24.5701 142.858 25.0966C142.858 25.6307 142.936 26.0985 143.091 26.5C143.25 26.8977 143.483 27.2083 143.79 27.4318C144.1 27.6515 144.481 27.7614 144.932 27.7614ZM153.176 24.3864V29.5H151.119V20.7727H153.085V22.2557H153.188C153.388 21.767 153.708 21.3788 154.148 21.0909C154.591 20.803 155.138 20.6591 155.79 20.6591C156.392 20.6591 156.917 20.7879 157.364 21.0455C157.814 21.303 158.163 21.6761 158.409 22.1648C158.659 22.6534 158.782 23.2462 158.778 23.9432V29.5H156.722V24.2614C156.722 23.678 156.57 23.2216 156.267 22.892C155.968 22.5625 155.553 22.3977 155.023 22.3977C154.663 22.3977 154.343 22.4773 154.062 22.6364C153.786 22.7917 153.568 23.017 153.409 23.3125C153.254 23.608 153.176 23.9659 153.176 24.3864ZM164.838 29.5V20.7727H166.895V29.5H164.838ZM165.872 19.5341C165.546 19.5341 165.266 19.4261 165.031 19.2102C164.796 18.9905 164.679 18.7273 164.679 18.4205C164.679 18.1098 164.796 17.8466 165.031 17.6307C165.266 17.411 165.546 17.3011 165.872 17.3011C166.202 17.3011 166.482 17.411 166.713 17.6307C166.948 17.8466 167.065 18.1098 167.065 18.4205C167.065 18.7273 166.948 18.9905 166.713 19.2102C166.482 19.4261 166.202 19.5341 165.872 19.5341ZM171.067 24.3864V29.5H169.01V20.7727H170.976V22.2557H171.078C171.279 21.767 171.599 21.3788 172.038 21.0909C172.482 20.803 173.029 20.6591 173.68 20.6591C174.283 20.6591 174.807 20.7879 175.254 21.0455C175.705 21.303 176.054 21.6761 176.3 22.1648C176.55 22.6534 176.673 23.2462 176.669 23.9432V29.5H174.612V24.2614C174.612 23.678 174.461 23.2216 174.158 22.892C173.858 22.5625 173.444 22.3977 172.913 22.3977C172.554 22.3977 172.233 22.4773 171.953 22.6364C171.677 22.7917 171.459 23.017 171.3 23.3125C171.144 23.608 171.067 23.9659 171.067 24.3864ZM184.53 29.5L182.064 20.7727H184.161L185.695 26.9091H185.774L187.342 20.7727H189.416L190.984 26.875H191.07L192.581 20.7727H194.683L192.212 29.5H190.07L188.433 23.6023H188.314L186.678 29.5H184.53ZM196.119 29.5V20.7727H198.176V29.5H196.119ZM197.153 19.5341C196.828 19.5341 196.547 19.4261 196.312 19.2102C196.078 18.9905 195.96 18.7273 195.96 18.4205C195.96 18.1098 196.078 17.8466 196.312 17.6307C196.547 17.411 196.828 17.3011 197.153 17.3011C197.483 17.3011 197.763 17.411 197.994 17.6307C198.229 17.8466 198.347 18.1098 198.347 18.4205C198.347 18.7273 198.229 18.9905 197.994 19.2102C197.763 19.4261 197.483 19.5341 197.153 19.5341ZM204.649 20.7727V22.3636H199.632V20.7727H204.649ZM200.871 18.6818H202.928V26.875C202.928 27.1515 202.969 27.3636 203.053 27.5114C203.14 27.6553 203.253 27.7538 203.393 27.8068C203.534 27.8598 203.689 27.8864 203.859 27.8864C203.988 27.8864 204.106 27.8769 204.212 27.858C204.321 27.839 204.405 27.822 204.462 27.8068L204.808 29.4148C204.698 29.4527 204.541 29.4943 204.337 29.5398C204.136 29.5852 203.89 29.6117 203.598 29.6193C203.083 29.6345 202.619 29.5568 202.206 29.3864C201.793 29.2121 201.465 28.9432 201.223 28.5795C200.984 28.2159 200.867 27.7614 200.871 27.2159V18.6818ZM208.614 24.3864V29.5H206.557V17.8636H208.568V22.2557H208.67C208.875 21.7633 209.191 21.375 209.619 21.0909C210.051 20.803 210.6 20.6591 211.267 20.6591C211.873 20.6591 212.402 20.786 212.852 21.0398C213.303 21.2936 213.652 21.6648 213.898 22.1534C214.148 22.642 214.273 23.2386 214.273 23.9432V29.5H212.216V24.2614C212.216 23.6742 212.064 23.2178 211.761 22.892C211.462 22.5625 211.042 22.3977 210.5 22.3977C210.136 22.3977 209.811 22.4773 209.523 22.6364C209.239 22.7917 209.015 23.017 208.852 23.3125C208.693 23.608 208.614 23.9659 208.614 24.3864ZM228.224 21.5795C228.13 21.2727 227.999 20.9981 227.832 20.7557C227.67 20.5095 227.473 20.2992 227.241 20.125C227.014 19.9508 226.753 19.8201 226.457 19.733C226.162 19.642 225.84 19.5966 225.491 19.5966C224.866 19.5966 224.31 19.7538 223.821 20.0682C223.332 20.3826 222.948 20.8447 222.668 21.4545C222.391 22.0606 222.253 22.7992 222.253 23.6705C222.253 24.5492 222.391 25.2936 222.668 25.9034C222.944 26.5133 223.329 26.9773 223.821 27.2955C224.313 27.6098 224.885 27.767 225.537 27.767C226.128 27.767 226.639 27.6534 227.071 27.4261C227.507 27.1989 227.842 26.8769 228.077 26.4602C228.312 26.0398 228.429 25.5473 228.429 24.983L228.906 25.0568H225.747V23.4091H230.469V24.8068C230.469 25.803 230.257 26.6648 229.832 27.392C229.408 28.1193 228.825 28.6799 228.082 29.0739C227.34 29.464 226.488 29.6591 225.526 29.6591C224.454 29.6591 223.512 29.4186 222.702 28.9375C221.895 28.4527 221.264 27.7652 220.81 26.875C220.359 25.9811 220.134 24.9205 220.134 23.6932C220.134 22.7538 220.266 21.9148 220.531 21.1761C220.8 20.4375 221.175 19.8106 221.656 19.2955C222.137 18.7765 222.702 18.3826 223.349 18.1136C223.997 17.8409 224.702 17.7045 225.463 17.7045C226.107 17.7045 226.707 17.7992 227.264 17.9886C227.821 18.1742 228.315 18.4394 228.747 18.7841C229.183 19.1288 229.541 19.5379 229.821 20.0114C230.101 20.4848 230.285 21.0076 230.372 21.5795H228.224ZM236.223 29.6705C235.371 29.6705 234.632 29.483 234.007 29.108C233.382 28.733 232.897 28.2083 232.553 27.5341C232.212 26.8598 232.041 26.072 232.041 25.1705C232.041 24.2689 232.212 23.4792 232.553 22.8011C232.897 22.1231 233.382 21.5966 234.007 21.2216C234.632 20.8466 235.371 20.6591 236.223 20.6591C237.075 20.6591 237.814 20.8466 238.439 21.2216C239.064 21.5966 239.547 22.1231 239.888 22.8011C240.232 23.4792 240.405 24.2689 240.405 25.1705C240.405 26.072 240.232 26.8598 239.888 27.5341C239.547 28.2083 239.064 28.733 238.439 29.108C237.814 29.483 237.075 29.6705 236.223 29.6705ZM236.234 28.0227C236.696 28.0227 237.083 27.8958 237.393 27.642C237.704 27.3845 237.935 27.0398 238.087 26.608C238.242 26.1761 238.32 25.6951 238.32 25.1648C238.32 24.6307 238.242 24.1477 238.087 23.7159C237.935 23.2803 237.704 22.9337 237.393 22.6761C237.083 22.4186 236.696 22.2898 236.234 22.2898C235.761 22.2898 235.367 22.4186 235.053 22.6761C234.742 22.9337 234.509 23.2803 234.354 23.7159C234.202 24.1477 234.126 24.6307 234.126 25.1648C234.126 25.6951 234.202 26.1761 234.354 26.608C234.509 27.0398 234.742 27.3845 235.053 27.642C235.367 27.8958 235.761 28.0227 236.234 28.0227ZM245.957 29.6705C245.105 29.6705 244.366 29.483 243.741 29.108C243.116 28.733 242.632 28.2083 242.287 27.5341C241.946 26.8598 241.776 26.072 241.776 25.1705C241.776 24.2689 241.946 23.4792 242.287 22.8011C242.632 22.1231 243.116 21.5966 243.741 21.2216C244.366 20.8466 245.105 20.6591 245.957 20.6591C246.81 20.6591 247.548 20.8466 248.173 21.2216C248.798 21.5966 249.281 22.1231 249.622 22.8011C249.967 23.4792 250.139 24.2689 250.139 25.1705C250.139 26.072 249.967 26.8598 249.622 27.5341C249.281 28.2083 248.798 28.733 248.173 29.108C247.548 29.483 246.81 29.6705 245.957 29.6705ZM245.969 28.0227C246.431 28.0227 246.817 27.8958 247.128 27.642C247.438 27.3845 247.67 27.0398 247.821 26.608C247.976 26.1761 248.054 25.6951 248.054 25.1648C248.054 24.6307 247.976 24.1477 247.821 23.7159C247.67 23.2803 247.438 22.9337 247.128 22.6761C246.817 22.4186 246.431 22.2898 245.969 22.2898C245.495 22.2898 245.101 22.4186 244.787 22.6761C244.476 22.9337 244.243 23.2803 244.088 23.7159C243.937 24.1477 243.861 24.6307 243.861 25.1648C243.861 25.6951 243.937 26.1761 244.088 26.608C244.243 27.0398 244.476 27.3845 244.787 27.642C245.101 27.8958 245.495 28.0227 245.969 28.0227ZM255.68 32.9545C254.942 32.9545 254.307 32.8542 253.777 32.6534C253.247 32.4564 252.821 32.1913 252.499 31.858C252.177 31.5246 251.953 31.1553 251.828 30.75L253.68 30.3011C253.764 30.4716 253.885 30.6402 254.044 30.8068C254.203 30.9773 254.417 31.1174 254.686 31.2273C254.959 31.3409 255.302 31.3977 255.714 31.3977C256.298 31.3977 256.781 31.2557 257.163 30.9716C257.546 30.6913 257.737 30.2292 257.737 29.5852V27.9318H257.635C257.529 28.1439 257.374 28.3617 257.169 28.5852C256.968 28.8087 256.701 28.9962 256.368 29.1477C256.038 29.2992 255.624 29.375 255.124 29.375C254.453 29.375 253.845 29.2178 253.3 28.9034C252.758 28.5852 252.326 28.1117 252.004 27.483C251.686 26.8504 251.527 26.0587 251.527 25.108C251.527 24.1496 251.686 23.3409 252.004 22.6818C252.326 22.0189 252.76 21.517 253.305 21.1761C253.851 20.8314 254.459 20.6591 255.129 20.6591C255.641 20.6591 256.061 20.7462 256.391 20.9205C256.724 21.0909 256.989 21.2973 257.186 21.5398C257.383 21.7784 257.533 22.0038 257.635 22.2159H257.749V20.7727H259.777V29.642C259.777 30.3883 259.599 31.0057 259.243 31.4943C258.887 31.983 258.4 32.3485 257.783 32.5909C257.165 32.8333 256.464 32.9545 255.68 32.9545ZM255.697 27.7614C256.133 27.7614 256.504 27.6553 256.811 27.4432C257.118 27.2311 257.351 26.9261 257.51 26.5284C257.669 26.1307 257.749 25.6534 257.749 25.0966C257.749 24.5473 257.669 24.0663 257.51 23.6534C257.355 23.2405 257.124 22.9205 256.817 22.6932C256.514 22.4621 256.141 22.3466 255.697 22.3466C255.239 22.3466 254.857 22.4659 254.55 22.7045C254.243 22.9432 254.012 23.2708 253.857 23.6875C253.701 24.1004 253.624 24.5701 253.624 25.0966C253.624 25.6307 253.701 26.0985 253.857 26.5C254.016 26.8977 254.249 27.2083 254.555 27.4318C254.866 27.6515 255.247 27.7614 255.697 27.7614ZM263.942 17.8636V29.5H261.885V17.8636H263.942ZM269.92 29.6705C269.045 29.6705 268.29 29.4886 267.653 29.125C267.021 28.7576 266.534 28.2386 266.193 27.5682C265.852 26.8939 265.682 26.1004 265.682 25.1875C265.682 24.2898 265.852 23.5019 266.193 22.8239C266.538 22.142 267.019 21.6117 267.636 21.233C268.254 20.8504 268.979 20.6591 269.812 20.6591C270.35 20.6591 270.858 20.7462 271.335 20.9205C271.816 21.0909 272.241 21.3561 272.608 21.7159C272.979 22.0758 273.271 22.5341 273.483 23.0909C273.695 23.6439 273.801 24.303 273.801 25.0682V25.6989H266.648V24.3125H271.83C271.826 23.9186 271.741 23.5682 271.574 23.2614C271.407 22.9508 271.174 22.7064 270.875 22.5284C270.58 22.3504 270.235 22.2614 269.841 22.2614C269.42 22.2614 269.051 22.3636 268.733 22.5682C268.415 22.7689 268.167 23.0341 267.989 23.3636C267.814 23.6894 267.725 24.0473 267.722 24.4375V25.6477C267.722 26.1553 267.814 26.5909 268 26.9545C268.186 27.3144 268.445 27.5909 268.778 27.7841C269.112 27.9735 269.502 28.0682 269.949 28.0682C270.248 28.0682 270.519 28.0265 270.761 27.9432C271.004 27.8561 271.214 27.7292 271.392 27.5625C271.57 27.3958 271.705 27.1894 271.795 26.9432L273.716 27.1591C273.595 27.6667 273.364 28.1098 273.023 28.4886C272.686 28.8636 272.254 29.1553 271.727 29.3636C271.201 29.5682 270.598 29.6705 269.92 29.6705Z" fill="#344054"/>
</g>
<defs>
<filter id="filter0_d_1_75497" x="0" y="0.5" width="364" height="48" filterUnits="userSpaceOnUse" color-interpolation-filters="sRGB">
<feFlood flood-opacity="0" result="BackgroundImageFix"/>
<feColorMatrix in="SourceAlpha" type="matrix" values="0 0 0 0 0 0 0 0 0 0 0 0 0 0 0 0 0 0 127 0" result="hardAlpha"/>
<feOffset dy="1"/>
<feGaussianBlur stdDeviation="1"/>
<feColorMatrix type="matrix" values="0 0 0 0 0.0627451 0 0 0 0 0.0941176 0 0 0 0 0.156863 0 0 0 0.05 0"/>
<feBlend mode="normal" in2="BackgroundImageFix" result="effect1_dropShadow_1_75497"/>
<feBlend mode="normal" in="SourceGraphic" in2="effect1_dropShadow_1_75497" result="shape"/>
</filter>
<clipPath id="clip0_1_75497">
<rect width="24" height="24" fill="white" transform="translate(89.5 11.5)"/>
</clipPath>
</defs>
</svg>
