<svg width="32" height="32" viewBox="0 0 32 32" fill="none" xmlns="http://www.w3.org/2000/svg">
<path fill-rule="evenodd" clip-rule="evenodd" d="M25.067 8.91809C26.3925 8.91809 27.467 7.86119 27.467 6.55743C27.467 5.25368 26.3925 4.19678 25.067 4.19678C23.7415 4.19678 22.667 5.25368 22.667 6.55743C22.667 7.86119 23.7415 8.91809 25.067 8.91809Z" fill="white"/>
<path fill-rule="evenodd" clip-rule="evenodd" d="M7.1998 8.91809C8.52529 8.91809 9.5998 7.86119 9.5998 6.55743C9.5998 5.25368 8.52529 4.19678 7.1998 4.19678C5.87432 4.19678 4.7998 5.25368 4.7998 6.55743C4.7998 7.86119 5.87432 8.91809 7.1998 8.91809Z" fill="white"/>
<path fill-rule="evenodd" clip-rule="evenodd" d="M7.1998 27.8029C8.52529 27.8029 9.5998 26.746 9.5998 25.4422C9.5998 24.1384 8.52529 23.0815 7.1998 23.0815C5.87432 23.0815 4.7998 24.1384 4.7998 25.4422C4.7998 26.746 5.87432 27.8029 7.1998 27.8029Z" fill="white"/>
<path fill-rule="evenodd" clip-rule="evenodd" d="M25.067 27.8029C26.3925 27.8029 27.467 26.746 27.467 25.4422C27.467 24.1384 26.3925 23.0815 25.067 23.0815C23.7415 23.0815 22.667 24.1384 22.667 25.4422C22.667 26.746 23.7415 27.8029 25.067 27.8029Z" fill="white"/>
<rect y="14.4263" width="32" height="3.14754" rx="1.57377" fill="#FBFAFF"/>
<rect x="17.5996" y="18.8853" width="13.1148" height="3.2" rx="1.6" transform="rotate(90 17.5996 18.8853)" fill="#FBFAFF"/>
<rect x="17.5996" width="13.1148" height="3.2" rx="1.6" transform="rotate(90 17.5996 0)" fill="#FBFAFF"/>
</svg>
