<svg width="66" height="66" viewBox="0 0 66 66" fill="none" xmlns="http://www.w3.org/2000/svg">
<rect x="5" y="5" width="56" height="56" rx="28" fill="#E0EAFF"/>
<rect x="5" y="5" width="56" height="56" rx="28" stroke="#F5F8FF" stroke-width="10"/>
<path d="M21.3333 27.167L30.8591 33.835C31.6304 34.375 32.0161 34.6449 32.4356 34.7495C32.8062 34.8419 33.1938 34.8419 33.5643 34.7495C33.9839 34.6449 34.3695 34.375 35.1409 33.835L44.6666 27.167M26.9333 42.3337H39.0666C41.0268 42.3337 42.0069 42.3337 42.7556 41.9522C43.4142 41.6166 43.9496 41.0812 44.2852 40.4226C44.6666 39.6739 44.6666 38.6938 44.6666 36.7337V29.267C44.6666 27.3068 44.6666 26.3267 44.2852 25.578C43.9496 24.9195 43.4142 24.384 42.7556 24.0485C42.0069 23.667 41.0268 23.667 39.0666 23.667H26.9333C24.9731 23.667 23.993 23.667 23.2443 24.0485C22.5858 24.384 22.0503 24.9195 21.7148 25.578C21.3333 26.3267 21.3333 27.3068 21.3333 29.267V36.7337C21.3333 38.6938 21.3333 39.6739 21.7148 40.4226C22.0503 41.0812 22.5858 41.6166 23.2443 41.9522C23.993 42.3337 24.9731 42.3337 26.9333 42.3337Z" stroke="#3538CD" stroke-width="2" stroke-linecap="round" stroke-linejoin="round"/>
</svg>
